# xmcd
#
# Track frame offsets:
#	150
#	23657
#	41567
#	48307
#	68655
#	70085
#	97025
#	114635
#	118817
#	124217
#	143475
#	162280
#	184830
#	185260
#	206502
#
# Disc length: 3005 seconds
#
# Revision: 1
# Processed by: cddbd v1.5.1PL0 Copyright (c) Steve Scherf et al.
# Submitted via: CDex 1.50Beta5
#
DISCID=d10bbb0f
DTITLE=yes,mama ok? - modern living
DYEAR=2001
DGENRE=Rock
TTITLE0=コーヒーカップでランデヴーって最高よ(modern style)
TTITLE1=砂のプリン(remasterd)
TTITLE2=check-co-lee #1(完全版)
TTITLE3=去年の今日も(タワーのクリスマスのテーマ)
TTITLE4=check-co-lee #2(普及版)
TTITLE5=Farewell gritty pudding(remasterd)
TTITLE6=C’est si bon
TTITLE7=Heart break kitchen
TTITLE8=最高のブルースを聴く女
TTITLE9=あなた〜If I were Akiko〜(男の子向き)
TTITLE10=Holy Sunday
TTITLE11=tea party(Modern style)
TTITLE12=check-co-lee #3(最終版)
TTITLE13=modern living
TTITLE14=あなた〜If I were Akiko〜(女の子向き)
EXTD=
EXTT0=
EXTT1=
EXTT2=
EXTT3=
EXTT4=
EXTT5=
EXTT6=
EXTT7=
EXTT8=
EXTT9=
EXTT10=
EXTT11=
EXTT12=
EXTT13=
EXTT14=
PLAYORDER=
